<svg width="64" height="65" viewBox="0 0 64 65" fill="none" xmlns="http://www.w3.org/2000/svg">
<g clip-path="url(#clip0_22_810)">
<path d="M29.3333 63.5319C29.3333 64.2679 28.736 64.8652 28 64.8652H12C5.384 64.8652 0 59.4812 0 52.8652V12.8652C0 6.24923 5.384 0.865234 12 0.865234H36C42.616 0.865234 48 6.24923 48 12.8652V23.5319C48 24.2679 47.4027 24.8652 46.6667 24.8652C45.9307 24.8652 45.3333 24.2679 45.3333 23.5319V12.8652C45.3333 7.71857 41.1467 3.5319 36 3.5319H12C6.85333 3.5319 2.66667 7.71857 2.66667 12.8652V52.8652C2.66667 58.0119 6.85333 62.1986 12 62.1986H28C28.736 62.1986 29.3333 62.7959 29.3333 63.5319ZM37.3333 15.5319C37.3333 14.7959 36.736 14.1986 36 14.1986H12C11.264 14.1986 10.6667 14.7959 10.6667 15.5319C10.6667 16.2679 11.264 16.8652 12 16.8652H36C36.736 16.8652 37.3333 16.2679 37.3333 15.5319ZM32 28.8652C32 28.1292 31.4027 27.5319 30.6667 27.5319H12C11.264 27.5319 10.6667 28.1292 10.6667 28.8652C10.6667 29.6012 11.264 30.1986 12 30.1986H30.6667C31.4027 30.1986 32 29.6012 32 28.8652ZM12 40.8652C11.264 40.8652 10.6667 41.4626 10.6667 42.1986C10.6667 42.9346 11.264 43.5319 12 43.5319H22.6667C23.4027 43.5319 24 42.9346 24 42.1986C24 41.4626 23.4027 40.8652 22.6667 40.8652H12ZM64 47.5319C64 57.0892 56.224 64.8652 46.6667 64.8652C37.1093 64.8652 29.3333 57.0892 29.3333 47.5319C29.3333 37.9746 37.1093 30.1986 46.6667 30.1986C56.224 30.1986 64 37.9746 64 47.5319ZM61.3333 47.5319C61.3333 39.4466 54.752 32.8652 46.6667 32.8652C38.5813 32.8652 32 39.4466 32 47.5319C32 55.6172 38.5813 62.1986 46.6667 62.1986C54.752 62.1986 61.3333 55.6172 61.3333 47.5319ZM52.408 45.1852L46.4933 50.8626C45.5973 51.7479 44.1307 51.7479 43.2293 50.8679L40.2133 47.9132C39.6907 47.4039 38.8453 47.4066 38.328 47.9346C37.8133 48.4599 37.824 49.3052 38.3493 49.8199L41.3653 52.7746C42.3307 53.7186 43.6 54.1906 44.864 54.1906C46.128 54.1906 47.3973 53.7159 48.3573 52.7719L54.2587 47.1079C54.7893 46.6012 54.8053 45.7532 54.296 45.2226C53.7893 44.6946 52.9413 44.6759 52.408 45.1852Z" fill="#FF7D44"/>
</g>
<defs>
<clipPath id="clip0_22_810">
<rect width="64" height="64" fill="white" transform="translate(0 0.865234)"/>
</clipPath>
</defs>
</svg>
