<svg width="173" height="37" viewBox="0 0 173 37" fill="none" xmlns="http://www.w3.org/2000/svg">
<path d="M39.7737 30.0247C39.7737 33.4405 37.0521 36.1674 33.7068 36.1674H10.1196C6.77432 36.1674 4.05273 33.4405 4.05273 30.0247V6.14273C4.05273 2.75561 6.77432 0 10.1196 0H33.7068C37.0521 0 39.7737 2.75561 39.7737 6.14273V30.0247Z" fill="#213358"/>
<path d="M39.7824 30.0247C39.7824 33.4176 37.0664 36.1675 33.7155 36.1675H10.1283C6.77737 36.1675 4.05859 33.4176 4.05859 30.0247V6.14275C4.05859 2.74987 6.77737 0 10.1283 0H33.7155C37.0664 0 39.7824 2.74987 39.7824 6.14275V30.0247Z" fill="#034B5B"/>
<path d="M0 4.08643H16.7202V30.3559H0" fill="#FF7D44"/>
<path d="M16.6123 30.8859L36.3722 31.0581L16.6123 30.8572V30.8859Z" fill="#65AFCD"/>
<path d="M30.7589 16.706L25.3441 9.09935C24.607 8.06597 24.0116 7.20485 23.6998 6.74561H16.6123V30.8572L36.3722 31.0582V19.0024L30.7589 16.706Z" fill="#F7F7F7"/>
<path d="M27.9805 31.8618H37.3643V28.2163H27.9805V31.8618Z" fill="#003B49"/>
<path d="M22.9341 30.599C22.9341 34.1297 20.0991 37.0001 16.6121 37.0001C13.0967 37.0001 10.2617 34.1297 10.2617 30.599C10.2617 27.0684 13.0967 24.198 16.6121 24.198C20.0991 24.198 22.9341 27.0684 22.9341 30.599Z" fill="black"/>
<path d="M16.6119 34.0434C14.7408 34.0434 13.21 32.4933 13.21 30.5988C13.21 28.7044 14.7408 27.1543 16.6119 27.1543C18.4547 27.1543 19.9856 28.7044 19.9856 30.5988C19.9856 32.4933 18.4547 34.0434 16.6119 34.0434Z" fill="#F7F7F7"/>
<path d="M24.9187 11.855L20.4678 16.3616H28.1222L24.9187 11.855Z" fill="#003B49"/>
<path d="M23.3313 9.61597L18.4268 14.5818V16.3614H18.6536L24.1534 10.7928L23.3313 9.61597Z" fill="#003B49"/>
<path d="M20.6097 8.75464H18.4268V10.9362L20.6097 8.75464Z" fill="#003B49"/>
<path d="M51.264 27L57.312 9.12H62.256L68.304 27H64.248L63.048 23.352H56.496L55.296 27H51.264ZM57.528 20.112H62.016L59.28 11.664H60.288L57.528 20.112ZM75.7414 27.288C74.3494 27.288 73.1414 26.984 72.1174 26.376C71.0934 25.752 70.3014 24.92 69.7414 23.88C69.1814 22.84 68.9014 21.688 68.9014 20.424C68.9014 19.112 69.1894 17.944 69.7654 16.92C70.3574 15.896 71.1494 15.088 72.1414 14.496C73.1334 13.904 74.2534 13.608 75.5014 13.608C76.5414 13.608 77.4614 13.776 78.2614 14.112C79.0614 14.432 79.7334 14.888 80.2774 15.48C80.8374 16.072 81.2614 16.76 81.5494 17.544C81.8374 18.312 81.9814 19.152 81.9814 20.064C81.9814 20.32 81.9654 20.576 81.9334 20.832C81.9174 21.072 81.8774 21.28 81.8134 21.456H71.9974V18.816H79.7734L78.0694 20.064C78.2294 19.376 78.2214 18.768 78.0454 18.24C77.8694 17.696 77.5574 17.272 77.1094 16.968C76.6774 16.648 76.1414 16.488 75.5014 16.488C74.8774 16.488 74.3414 16.64 73.8934 16.944C73.4454 17.248 73.1094 17.696 72.8854 18.288C72.6614 18.88 72.5734 19.6 72.6214 20.448C72.5574 21.184 72.6454 21.832 72.8854 22.392C73.1254 22.952 73.4934 23.392 73.9894 23.712C74.4854 24.016 75.0854 24.168 75.7894 24.168C76.4294 24.168 76.9734 24.04 77.4214 23.784C77.8854 23.528 78.2454 23.176 78.5014 22.728L81.3814 24.096C81.1254 24.736 80.7174 25.296 80.1574 25.776C79.6134 26.256 78.9654 26.632 78.2134 26.904C77.4614 27.16 76.6374 27.288 75.7414 27.288ZM84.1013 27V13.896H87.4613V17.04L87.2213 16.584C87.5093 15.48 87.9813 14.736 88.6373 14.352C89.3093 13.952 90.1013 13.752 91.0133 13.752H91.7813V16.872H90.6533C89.7733 16.872 89.0613 17.144 88.5173 17.688C87.9733 18.216 87.7013 18.968 87.7013 19.944V27H84.1013ZM99.8631 27.288C98.5671 27.288 97.3831 26.992 96.3111 26.4C95.2551 25.808 94.4071 25 93.7671 23.976C93.1431 22.936 92.8311 21.76 92.8311 20.448C92.8311 19.12 93.1431 17.944 93.7671 16.92C94.4071 15.896 95.2551 15.088 96.3111 14.496C97.3831 13.904 98.5671 13.608 99.8631 13.608C101.159 13.608 102.335 13.904 103.391 14.496C104.447 15.088 105.287 15.896 105.911 16.92C106.551 17.944 106.871 19.12 106.871 20.448C106.871 21.76 106.551 22.936 105.911 23.976C105.287 25 104.447 25.808 103.391 26.4C102.335 26.992 101.159 27.288 99.8631 27.288ZM99.8631 24.048C100.519 24.048 101.087 23.896 101.567 23.592C102.063 23.288 102.447 22.864 102.719 22.32C103.007 21.776 103.151 21.152 103.151 20.448C103.151 19.744 103.007 19.128 102.719 18.6C102.447 18.056 102.063 17.632 101.567 17.328C101.087 17.008 100.519 16.848 99.8631 16.848C99.2071 16.848 98.6311 17.008 98.1351 17.328C97.6391 17.632 97.2471 18.056 96.9591 18.6C96.6871 19.128 96.5511 19.744 96.5511 20.448C96.5511 21.152 96.6871 21.776 96.9591 22.32C97.2471 22.864 97.6391 23.288 98.1351 23.592C98.6311 23.896 99.2071 24.048 99.8631 24.048Z" fill="#003B49"/>
<path d="M109.256 27V9.12H112.976V23.76H120.536V27H109.256ZM128.621 27.288C127.325 27.288 126.141 26.992 125.069 26.4C124.013 25.808 123.165 25 122.525 23.976C121.901 22.936 121.589 21.76 121.589 20.448C121.589 19.12 121.901 17.944 122.525 16.92C123.165 15.896 124.013 15.088 125.069 14.496C126.141 13.904 127.325 13.608 128.621 13.608C129.917 13.608 131.093 13.904 132.149 14.496C133.205 15.088 134.045 15.896 134.669 16.92C135.309 17.944 135.629 19.12 135.629 20.448C135.629 21.76 135.309 22.936 134.669 23.976C134.045 25 133.205 25.808 132.149 26.4C131.093 26.992 129.917 27.288 128.621 27.288ZM128.621 24.048C129.277 24.048 129.845 23.896 130.325 23.592C130.821 23.288 131.205 22.864 131.477 22.32C131.765 21.776 131.909 21.152 131.909 20.448C131.909 19.744 131.765 19.128 131.477 18.6C131.205 18.056 130.821 17.632 130.325 17.328C129.845 17.008 129.277 16.848 128.621 16.848C127.965 16.848 127.389 17.008 126.893 17.328C126.397 17.632 126.005 18.056 125.717 18.6C125.445 19.128 125.309 19.744 125.309 20.448C125.309 21.152 125.445 21.776 125.717 22.32C126.005 22.864 126.397 23.288 126.893 23.592C127.389 23.896 127.965 24.048 128.621 24.048ZM144.182 32.28C143.174 32.28 142.238 32.112 141.374 31.776C140.51 31.44 139.766 30.968 139.142 30.36C138.534 29.768 138.094 29.064 137.822 28.248L141.158 27.072C141.334 27.68 141.694 28.16 142.238 28.512C142.782 28.864 143.43 29.04 144.182 29.04C144.774 29.04 145.286 28.928 145.718 28.704C146.15 28.496 146.478 28.184 146.702 27.768C146.942 27.352 147.062 26.864 147.062 26.304V23.304L147.758 24.168C147.31 24.904 146.734 25.456 146.03 25.824C145.326 26.176 144.502 26.352 143.558 26.352C142.342 26.352 141.254 26.08 140.294 25.536C139.334 24.976 138.582 24.216 138.038 23.256C137.494 22.28 137.222 21.176 137.222 19.944C137.222 18.712 137.494 17.624 138.038 16.68C138.582 15.72 139.326 14.968 140.27 14.424C141.214 13.88 142.286 13.608 143.486 13.608C144.43 13.608 145.254 13.8 145.958 14.184C146.662 14.552 147.262 15.12 147.758 15.888L147.302 16.752V13.896H150.662V26.304C150.662 27.456 150.382 28.48 149.822 29.376C149.262 30.288 148.494 31 147.518 31.512C146.558 32.024 145.446 32.28 144.182 32.28ZM144.062 23.088C144.67 23.088 145.198 22.96 145.646 22.704C146.094 22.448 146.438 22.088 146.678 21.624C146.934 21.16 147.062 20.616 147.062 19.992C147.062 19.368 146.934 18.824 146.678 18.36C146.422 17.88 146.07 17.512 145.622 17.256C145.174 16.984 144.654 16.848 144.062 16.848C143.454 16.848 142.91 16.984 142.43 17.256C141.966 17.512 141.598 17.88 141.326 18.36C141.07 18.824 140.942 19.368 140.942 19.992C140.942 20.6 141.07 21.136 141.326 21.6C141.598 22.064 141.966 22.432 142.43 22.704C142.91 22.96 143.454 23.088 144.062 23.088ZM153.312 27V13.896H156.912V27H153.312ZM153.312 12.72V9.12H156.912V12.72H153.312ZM158.515 27L163.099 20.424L158.491 13.896H162.667L166.123 18.984H164.299L167.755 13.896H171.931L167.323 20.424L171.883 27H167.731L164.347 21.912H166.075L162.691 27H158.515Z" fill="#FF7D44"/>
</svg>
